<?xml version="1.0" standalone="no"?>
<!DOCTYPE svg PUBLIC "-//W3C//DTD SVG 20010904//EN"
 "http://www.w3.org/TR/2001/REC-SVG-20010904/DTD/svg10.dtd">
<svg version="1.0" xmlns="http://www.w3.org/2000/svg"
 width="252.000000pt" height="265.000000pt" viewBox="0 0 252.000000 265.000000"
 preserveAspectRatio="xMidYMid meet">
<metadata>
Created by potrace 1.16, written by Peter Selinger 2001-2019
</metadata>
<g transform="translate(0.000000,265.000000) scale(0.100000,-0.100000)"
fill="#42a5f5" stroke="none">
<path d="M453 2619 c-17 -17 -16 -72 2 -115 14 -34 14 -36 -3 -29 -32 12 -37
10 -40 -16 -2 -16 10 -44 33 -77 l35 -51 -30 6 c-29 5 -30 5 -30 -36 0 -22 -2
-41 -5 -41 -15 0 -179 126 -219 169 -17 17 -35 31 -42 31 -16 0 -25 -27 -18
-56 8 -33 1 -30 -47 16 -33 31 -45 38 -55 29 -24 -20 15 -130 63 -176 22 -20
23 -25 8 -19 -46 17 -85 19 -85 4 0 -25 74 -101 129 -133 28 -16 51 -33 51
-36 0 -4 -29 2 -66 12 -74 20 -87 13 -61 -38 20 -36 47 -59 109 -90 27 -14 48
-26 46 -28 -2 -2 -25 1 -52 6 -55 10 -68 6 -59 -19 10 -29 36 -53 83 -78 l45
-23 -37 -1 c-26 0 -38 -4 -38 -15 0 -18 79 -65 109 -65 20 0 22 -4 17 -25 -7
-28 4 -36 81 -56 47 -11 52 -15 47 -35 -5 -18 1 -27 28 -44 18 -11 44 -20 58
-20 14 0 35 -3 48 -6 18 -5 20 -9 11 -20 -28 -34 29 -64 120 -64 35 0 42 -3
33 -12 -34 -34 7 -75 78 -80 32 -1 44 -7 48 -20 6 -24 41 -32 86 -20 29 9 38
8 45 -5 7 -13 20 -15 65 -10 45 4 56 3 56 -9 0 -16 55 -19 94 -5 18 8 28 6 37
-6 10 -11 23 -13 54 -8 22 4 56 7 75 6 19 0 46 4 60 9 20 8 34 6 65 -11 26
-14 31 -19 15 -15 -52 12 -186 -80 -227 -157 -12 -22 -17 -52 -16 -97 1 -76
28 -143 103 -256 77 -118 78 -169 4 -231 -52 -44 -58 -80 -20 -135 55 -82 96
-166 96 -200 0 -19 7 -43 15 -54 8 -10 15 -37 15 -60 0 -50 19 -70 86 -90 94
-28 103 -17 49 65 -27 40 -35 63 -35 97 0 35 -5 50 -26 69 -31 29 -84 155 -84
201 0 36 7 43 100 97 104 61 141 157 121 317 -11 81 -6 136 11 146 6 4 7 -9 3
-30 -4 -20 -4 -36 0 -36 4 0 32 23 63 51 31 28 74 63 97 77 102 64 203 134
236 164 38 34 109 120 109 132 0 3 -25 6 -55 6 -76 0 -70 16 7 18 34 1 78 9
97 18 18 9 52 19 74 22 l41 5 -40 -40 c-24 -25 -43 -37 -48 -32 -16 14 -36 10
-43 -8 -4 -10 -13 -24 -20 -31 -14 -14 -29 -80 -20 -89 3 -3 27 3 53 13 56 23
141 103 150 141 10 49 12 49 13 1 1 -28 -8 -70 -21 -103 -20 -47 -26 -55 -48
-52 -20 2 -27 -4 -37 -33 -13 -39 -17 -110 -5 -110 15 0 69 39 112 81 38 37
49 57 68 124 12 44 27 109 33 144 12 75 3 91 -50 92 -36 1 -36 1 -8 11 21 7
27 16 27 38 0 58 -4 60 -106 60 -91 0 -94 -1 -84 -19 5 -11 10 -29 10 -40 0
-18 6 -21 46 -21 50 0 90 -24 59 -36 -8 -4 -43 -4 -75 -2 -60 4 -108 28 -118
58 -3 8 6 5 23 -8 40 -32 48 -28 42 19 -5 38 -16 57 -88 157 -21 30 -34 62
-41 110 -7 40 -17 71 -27 76 -26 16 -61 54 -61 68 0 7 10 1 23 -15 15 -19 42
-33 89 -46 36 -10 81 -30 98 -44 32 -27 70 -36 70 -16 0 5 4 8 8 5 4 -2 13 -2
18 2 16 11 44 55 44 69 0 7 -32 43 -71 80 -39 38 -79 84 -89 103 -10 19 -35
48 -54 64 -32 26 -36 35 -36 74 0 37 -2 42 -14 33 -8 -7 -17 -23 -20 -36 -10
-37 -24 -30 -47 22 -25 58 -38 45 -40 -37 -1 -30 -4 -43 -6 -27 -4 22 -9 27
-34 27 -68 0 -153 -64 -217 -165 -18 -27 -52 -66 -76 -84 -50 -39 -50 -54 0
-49 18 1 34 -1 34 -5 1 -16 -30 -63 -59 -92 -38 -38 -38 -45 -1 -45 40 0 38
-19 -6 -66 -20 -22 -34 -31 -31 -21 5 12 -5 28 -34 54 -22 20 -70 72 -107 117
-140 168 -216 237 -242 221 -6 -3 -10 -13 -10 -21 0 -8 -5 -14 -11 -14 -12 0
-138 60 -173 83 -160 101 -279 191 -361 271 -39 38 -125 146 -125 157 0 5 -7
9 -15 9 -9 0 -18 -12 -21 -30 -6 -26 -24 -43 -24 -22 0 4 -12 23 -27 41 -23
26 -30 30 -40 20z"/>
<path d="M1120 1153 c-62 -22 -105 -53 -137 -98 l-37 -50 -8 -140 c-8 -147
-27 -249 -55 -293 -22 -35 -71 -82 -86 -82 -7 0 -4 -5 6 -11 9 -6 26 -7 37 -4
33 10 23 -15 -10 -26 -16 -6 -30 -15 -30 -20 0 -5 14 -9 30 -9 39 0 38 -13 -2
-31 -43 -21 -23 -29 35 -14 51 13 60 7 25 -18 l-23 -16 26 0 c69 -2 155 51
179 110 13 31 26 37 32 17 7 -19 57 92 70 154 13 62 5 139 -27 258 -14 55 -15
73 -5 110 12 46 58 100 84 100 21 0 33 49 15 61 -15 9 -94 11 -119 2z"/>
<path d="M1713 925 c-6 -11 -13 -72 -15 -135 -7 -163 -36 -217 -146 -274 -18
-9 -42 -26 -53 -37 l-20 -20 35 -39 c47 -52 86 -131 86 -174 0 -19 6 -41 14
-49 8 -8 16 -34 18 -58 3 -37 8 -47 37 -66 36 -24 101 -31 101 -11 0 6 -14 34
-32 61 -20 31 -34 69 -39 103 -4 29 -16 66 -26 81 -24 34 -63 130 -63 152 0 9
24 46 54 83 73 90 91 146 83 257 -4 47 -10 100 -15 116 -8 28 -9 29 -19 10z"/>
</g>
</svg>
